<svg xmlns="http://www.w3.org/2000/svg" viewBox="0 0 64 64" id="report"><path d="M54 12h-4v-2c-.029-.257-.1-.518-.293-.707l-7-7c-.19-.192-.45-.264-.707-.293H12c-3.273.03-5.336 2.85-5 6H6a1 1 0 1 0 0 2h1v4H6a1 1 0 1 0 0 2h1v4H6a1 1 0 1 0 0 2h1v4H6a1 1 0 1 0 0 2h1v4H6a1 1 0 1 0 0 2h1v4H6a1 1 0 1 0 0 2h1v4H6a1 1 0 1 0 0 2h1c-.33 3.152 1.716 5.967 5 6h4v1h-1a1 1 0 1 0 0 2h1v2c0 2.757 2.243 5 5 5h33c2.757 0 5-2.243 5-5V17c0-2.757-2.243-5-5-5ZM43 5.414 46.586 9H45c-1.103 0-2-.897-2-2V5.414ZM16 17h-1a1 1 0 1 0 0 2h1v4h-1a1 1 0 1 0 0 2h1v4h-1a1 1 0 1 0 0 2h1v4h-1a1 1 0 1 0 0 2h1v4h-1a1 1 0 1 0 0 2h1v4h-1a1 1 0 1 0 0 2h1v1h-4c-1.654 0-3-1.346-3-3v-1h1a1 1 0 1 0 0-2H9v-4h1a1 1 0 1 0 0-2H9v-4h1a1 1 0 1 0 0-2H9v-4h1a1 1 0 1 0 0-2H9v-4h1a1 1 0 1 0 0-2H9v-4h1a1 1 0 1 0 0-2H9v-4h1a1 1 0 1 0 0-2H9V7c0-1.654 1.346-3 3-3h29v3c0 2.206 1.794 4 4 4h3v1H21c-2.757 0-5 2.243-5 5Zm41 40c0 1.654-1.346 3-3 3H21c-1.654 0-3-1.346-3-3v-2h1a1 1 0 1 0 0-2h-1v-4h1a1 1 0 1 0 0-2h-1v-4h1a1 1 0 1 0 0-2h-1v-4h1a1 1 0 1 0 0-2h-1v-4h1a1 1 0 1 0 0-2h-1v-4h1a1 1 0 1 0 0-2h-1v-4h1a1 1 0 1 0 0-2h-1c0-1.654 1.346-3 3-3h33c1.654 0 3 1.346 3 3v40Z"></path><path d="M49 19H26c-1.654 0-3 1.346-3 3v30c0 1.654 1.346 3 3 3h23c1.654 0 3-1.346 3-3V22c0-1.654-1.346-3-3-3Zm1 33a1 1 0 0 1-1 1H26a1 1 0 0 1-1-1V22c0-.551.448-1 1-1h23c.552 0 1 .449 1 1v30Z"></path><path d="M47.882 29.552A1.01 1.01 0 0 0 47 29h-5c-1.312.021-1.316 1.978 0 2h2.755l-6.685 7.427L35.8 35.4a.997.997 0 0 0-1.381-.213l-7 5c-1.057.78.082 2.374 1.162 1.626l6.205-4.431L37.2 40.6a1 1 0 0 0 .755.399.95.95 0 0 0 .788-.33L46 32.606V35c.021 1.313 1.978 1.315 2 0-.045-.217.119-5.42-.118-5.448zM31 25h14c1.31-.02 1.318-1.978 0-2H31c-1.31.02-1.318 1.978 0 2zm16 23h-7c-1.313.021-1.316 1.978 0 2h7c1.313-.021 1.316-1.978 0-2zm0-4h-4c-1.313.021-1.315 1.978 0 2h4c1.313-.021 1.315-1.978 0-2z"></path></svg>