<svg xmlns="http://www.w3.org/2000/svg" width="32" height="32" id="computer"><path d="M16 1.5c-1.65 0-3 1.35-3 3a3 3 0 0 0 2.5 2.947v9.055H12v-1.975l-2.5-.039v-2.04A3 3 0 0 0 12 9.5c0-1.65-1.35-3-3-3s-3 1.35-3 3a3 3 0 0 0 2.5 2.947v3.026l2.5.039v.99H8.5a.5.5 0 0 0-.5.5V21.5H3.5v-4.053A3 3 0 0 0 6 14.5c0-1.65-1.35-3-3-3s-3 1.35-3 3a3 3 0 0 0 2.5 2.947V22.5H8v5.002h6.076c-.01.43-.035.771-.127 1-.117.291-.381.583-.947 1h-1.488a.5.5 0 1 0 0 1h8.966a.5.5 0 1 0 0-1h-1.482c-.566-.417-.83-.709-.947-1-.092-.229-.116-.57-.127-1H24V22.5h5.5v-5.053A3 3 0 0 0 32 14.5c0-1.65-1.35-3-3-3s-3 1.35-3 3a3 3 0 0 0 2.5 2.947V21.5H24v-4.498a.5.5 0 0 0-.5-.5H21v-.992l2.5-.037v-3.026A3 3 0 0 0 26 9.5c0-1.65-1.35-3-3-3s-3 1.35-3 3a3 3 0 0 0 2.5 2.947v2.041l-2.5.04v1.974h-3.5V7.447A3 3 0 0 0 19 4.5c0-1.65-1.35-3-3-3zm0 1c1.11 0 2 .89 2 2 0 1.11-.89 2-2 2-1.11 0-2-.89-2-2 0-1.11.89-2 2-2zm-7 5c1.11 0 2 .89 2 2 0 1.11-.89 2-2 2-1.11 0-2-.89-2-2 0-1.11.89-2 2-2zm14 0c1.11 0 2 .89 2 2 0 1.11-.89 2-2 2-1.11 0-2-.89-2-2 0-1.11.89-2 2-2zm-20 5c1.11 0 2 .89 2 2 0 1.11-.89 2-2 2-1.11 0-2-.89-2-2 0-1.11.89-2 2-2zm26 0c1.11 0 2 .89 2 2 0 1.11-.89 2-2 2-1.11 0-2-.89-2-2 0-1.11.89-2 2-2zM9 17.502h14v7H9v-7zm0 8h14v1H9v-1zm6.033 2h1.934c.008.487-.01.963.156 1.373.092.229.404.422.574.627h-3.394c.17-.205.482-.398.574-.627.165-.41.148-.886.156-1.373z" color="#000" font-family="sans-serif" font-weight="400" overflow="visible" style="line-height:normal;text-indent:0;text-align:start;text-decoration-line:none;text-decoration-style:solid;text-decoration-color:#000;text-transform:none;block-progression:tb;white-space:normal;isolation:auto;mix-blend-mode:normal;solid-color:#000;solid-opacity:1"></path></svg>