<svg xmlns="http://www.w3.org/2000/svg" viewBox="0 0 64 64" id="business-development"><path d="M63.51 58.52h-3.6V30.01c0-.55-.44-.99-.99-.99h-6.81c-.55 0-.99.44-.99.99v28.51h-5.98V46.7c0-.55-.45-.99-1-.99h-6.81c-.55 0-.99.44-.99.99v11.82h-5.98V30.01c0-.55-.44-.99-.99-.99h-6.81c-.55 0-1 .44-1 .99v28.51h-5.98V42.15c0-.55-.44-.99-.99-.99H7.78c-.55 0-.99.44-.99.99v16.37H1.48V4.48c0-.55-.44-.99-.99-.99s-.99.44-.99.99v55.04c0 .55.44.99.99.99h63.02c.55 0 .99-.44.99-.99s-.44-1-.99-1z"></path><path d="M15.38 26.14c6.1 0 11.07-4.97 11.07-11.07 0-6.11-4.97-11.08-11.07-11.08C9.27 3.99 4.3 8.96 4.3 15.07c0 6.1 4.97 11.07 11.08 11.07zm0-10.58c-1.72 0-3.12-1.4-3.12-3.12 0-1.54 1.14-2.82 2.63-3.06V8.27c0-.28.22-.5.49-.5s.49.22.49.5v1.11c1.48.24 2.62 1.52 2.62 3.06 0 .28-.22.5-.49.5s-.49-.22-.49-.5c0-1.17-.96-2.13-2.13-2.13-1.18 0-2.13.96-2.13 2.13 0 1.18.95 2.13 2.13 2.13 1.72 0 3.11 1.4 3.11 3.12 0 1.55-1.14 2.82-2.62 3.06v1.12a.49.49 0 0 1-.98 0v-1.12c-1.49-.24-2.63-1.51-2.63-3.06 0-.27.22-.49.5-.49.27 0 .49.22.49.49 0 1.17.95 2.13 2.13 2.13 1.17 0 2.13-.96 2.13-2.13 0-1.18-.96-2.13-2.13-2.13z"></path></svg>