<svg xmlns="http://www.w3.org/2000/svg" enable-background="new 0 0 66 66" viewBox="0 0 66 66" id="content-writing"><path d="M63.5145 5.5754h-17.95c-1.19 0-2.15.9601-2.15 2.15v13.9299c0 1.1901.96 2.15 2.15 2.15h6.03l2.94 4.4 2.94-4.4h6.04c1.19 0 2.15-.96 2.15-2.15V7.7254C65.6645 6.5355 64.7045 5.5754 63.5145 5.5754zM61.7945 20.4354h-14.51c-.27 0-.5-.23-.5-.5 0-.28.23-.5.5-.5h14.51c.27 0 .5.22.5.5C62.2945 20.2054 62.0645 20.4354 61.7945 20.4354zM61.7945 16.9354h-14.51c-.27 0-.5-.22-.5-.5 0-.27.23-.5.5-.5h14.51c.27 0 .5.23.5.5C62.2945 16.7154 62.0645 16.9354 61.7945 16.9354zM61.7945 13.4454h-14.51c-.27 0-.5-.23-.5-.5 0-.28.23-.5.5-.5h14.51c.27 0 .5.22.5.5C62.2945 13.2154 62.0645 13.4454 61.7945 13.4454zM61.7945 9.9554h-14.51c-.27 0-.5-.23-.5-.5 0-.28.23-.5.5-.5h14.51c.27 0 .5.22.5.5C62.2945 9.7254 62.0645 9.9554 61.7945 9.9554zM36.7314 60.5716H25.9492l-1.4531-3.1687H.3355v3.6813c0 1.8793 1.5209 3.4003 3.4003 3.4003h55.1994c1.8794 0 3.4003-1.521 3.4003-3.4003v-3.6813h-24.151L36.7314 60.5716z"></path><path d="M59.4045,25.8054h-0.86l-3.14,4.6901v20.9099h-48.13v-11.75c-0.59-0.75-0.94-1.6899-0.94-2.71v-23.96h-0.09
		c-1.65,0-2.97,1.33-2.97,2.98v39.4399h56.13V25.8054z"></path><rect width="3.75" height="4" x="37.665" y="12.986"></rect><path d="M29.0145,11.6654c-2.09,0-3.78-1.6899-3.78-3.77V1.5155h-14.49c-1.33,0-2.41,1.09-2.41,2.4199v33.01
		c0,1.3201,1.08,2.41,2.41,2.41h22.51c1.34,0,2.41-1.09,2.41-2.41v-25.28H29.0145z M12.9245,5.6153h9.2c0.27,0,0.5,0.2201,0.5,0.5
		c0,0.27-0.23,0.5-0.5,0.5h-9.2c-0.27,0-0.5-0.23-0.5-0.5C12.4245,5.8354,12.6545,5.6153,12.9245,5.6153z M12.9245,9.7054h9.2
		c0.27,0,0.5,0.22,0.5,0.5s-0.23,0.5-0.5,0.5h-9.2c-0.27,0-0.5-0.22-0.5-0.5S12.6545,9.7054,12.9245,9.7054z M31.0745,35.2555
		h-18.15c-0.27,0-0.5-0.22-0.5-0.5c0-0.27,0.23-0.5,0.5-0.5h18.15c0.28,0,0.5,0.23,0.5,0.5
		C31.5745,35.0355,31.3545,35.2555,31.0745,35.2555z M31.0745,31.1654h-18.15c-0.27,0-0.5-0.22-0.5-0.5c0-0.27,0.23-0.5,0.5-0.5
		h18.15c0.28,0,0.5,0.23,0.5,0.5C31.5745,30.9454,31.3545,31.1654,31.0745,31.1654z M31.0745,27.0754h-18.15
		c-0.27,0-0.5-0.22-0.5-0.5s0.23-0.5,0.5-0.5h18.15c0.28,0,0.5,0.22,0.5,0.5S31.3545,27.0754,31.0745,27.0754z M31.0745,22.9855
		h-18.15c-0.27,0-0.5-0.23-0.5-0.5c0-0.28,0.23-0.5,0.5-0.5h18.15c0.28,0,0.5,0.22,0.5,0.5
		C31.5745,22.7555,31.3545,22.9855,31.0745,22.9855z M31.0745,18.8854h-18.15c-0.27,0-0.5-0.22-0.5-0.5c0-0.27,0.23-0.5,0.5-0.5
		h18.15c0.28,0,0.5,0.23,0.5,0.5C31.5745,18.6654,31.3545,18.8854,31.0745,18.8854z M31.0745,14.7954h-18.15
		c-0.27,0-0.5-0.22-0.5-0.5c0-0.2699,0.23-0.5,0.5-0.5h18.15c0.28,0,0.5,0.2301,0.5,0.5
		C31.5745,14.5754,31.3545,14.7954,31.0745,14.7954z"></path><path d="M27.2299,7.8941c0,0.9775,0.7998,1.7725,1.7822,1.7725h5.1462l-6.9285-6.9285V7.8941z"></path><rect width="18.105" height="6.301" x="23.156" y="43.738"></rect><path d="M17.9797 45.3634v3.0515c0 .8975.7275 1.625 1.6251 1.625h2.551v-6.3015h-2.551C18.7072 43.7384 17.9797 44.4659 17.9797 45.3634zM45.8725 45.6835c-.1287.79-.1284 1.6111.0007 2.4014l2.5309-1.2034L45.8725 45.6835zM44.9469 45.2455l-2.6857-1.2708v5.8276l2.6868-1.2776C44.7342 47.452 44.7337 46.3182 44.9469 45.2455z"></path></svg>