<svg xmlns="http://www.w3.org/2000/svg" id="database" x="0" y="0" enable-background="new 0 0 16 16" version="1.1" viewBox="0 0 16 16" xml:space="preserve"><path id="rect7" fill="#231f20" d="M11.753.513c-1.904 0-3.5 1.266-4.037 2.995H.931c-.502 0-.91.41-.91.911v2.676c0 .258.11.488.284.654A.902.902 0 0 0 0 8.417v2.676a.9.9 0 0 0 .293.66.904.904 0 0 0-.293.661v2.676c0 .502.41.91.912.91h11.17a.91.91 0 0 0 .91-.91v-2.676a.904.904 0 0 0-.293-.661.9.9 0 0 0 .293-.66V8.8C14.727 8.268 16 6.67 16 4.761A4.252 4.252 0 0 0 11.753.513zm0 .5A3.752 3.752 0 0 1 15.5 4.761a3.752 3.752 0 0 1-3.747 3.747 3.752 3.752 0 0 1-3.748-3.747 3.752 3.752 0 0 1 3.748-3.748zm-.227 1.636v3.318l-1.093-1.023-.342.365 1.515 1.415a.245.245 0 0 0 .17.067.25.25 0 0 0 .174-.069l1.475-1.415-.345-.36-1.054 1.01V2.65h-.5zM.931 4.007h6.65a4.25 4.25 0 0 0-.076.754c0 1.052.4 2.002 1.035 2.744H.93a.41.41 0 0 1-.41-.41V4.42c0-.227.184-.412.41-.412zm.824 1.5v.5h3.997v-.5H1.755zM.912 8.004h8.135c.738.616 1.672 1.003 2.706 1.003.253 0 .499-.033.74-.076v2.16a.41.41 0 0 1-.41.41H.911a.412.412 0 0 1-.412-.41V8.418c0-.227.186-.412.412-.412zm9.831 1.45a.3.3 0 0 0-.277.299.3.3 0 0 0 .299.3.3.3 0 0 0 .3-.3.3.3 0 0 0-.3-.299.3.3 0 0 0-.022 0zm-8.738.049v.5h3.997v-.5H2.005zM.912 12.002h11.17c.227 0 .41.186.41.412v2.676a.41.41 0 0 1-.41.41H.912a.412.412 0 0 1-.412-.41v-2.676c0-.227.186-.412.412-.412zm9.804 1.45a.3.3 0 0 0-.277.3.3.3 0 0 0 .299.3.3.3 0 0 0 .3-.3.3.3 0 0 0-.3-.3.3.3 0 0 0-.022 0zm-8.711.05v.5h3.997v-.5H2.005z"></path></svg>