<svg xmlns="http://www.w3.org/2000/svg" width="24" height="24" fill="none" viewBox="0 0 24 24" id="cup-first"><path fill="#111" fill-rule="evenodd" d="M12.787 5.80709C13.0673 5.92318 13.25 6.19665 13.25 6.5V10.5C13.25 10.9142 12.9142 11.25 12.5 11.25 12.0858 11.25 11.75 10.9142 11.75 10.5V8.31066L11.5303 8.53033C11.2374 8.82322 10.7626 8.82322 10.4697 8.53033 10.1768 8.23744 10.1768 7.76256 10.4697 7.46967L11.9697 5.96967C12.1842 5.75517 12.5068 5.691 12.787 5.80709zM19.7115 6.02772L18.7628 5.71151 19.2372 4.28849 20.1858 4.6047C20.1983 4.60885 20.2107 4.613 20.2231 4.61713 20.6862 4.77147 21.0921 4.90675 21.4142 5.05657 21.7623 5.21853 22.0814 5.42714 22.3253 5.76556 22.5692 6.10397 22.6662 6.47262 22.7097 6.85412 22.75 7.20701 22.75 7.63489 22.7499 8.12306L22.7499 8.23489C22.7499 8.24605 22.7499 8.25719 22.7499 8.26829 22.75 8.67009 22.75 9.02498 22.7203 9.3218 22.6882 9.64348 22.617 9.95621 22.4391 10.2584 22.2613 10.5607 22.0225 10.7748 21.7569 10.9591 21.5118 11.1292 21.2016 11.3015 20.8503 11.4966L17.8642 13.1556 17.1358 11.8444 20.0927 10.2016C20.4818 9.98542 20.7255 9.84906 20.9017 9.7268 21.0641 9.61408 21.117 9.54762 21.1463 9.49774 21.1757 9.44786 21.2081 9.36935 21.2277 9.17263 21.2491 8.95925 21.2499 8.68003 21.2499 8.23485L21.2499 8.16232C21.25 7.62324 21.2488 7.28191 21.2194 7.02423 21.1922 6.78571 21.1476 6.69704 21.1084 6.6426 21.0692 6.58817 20.9992 6.51786 20.7815 6.4166 20.5463 6.30721 20.2229 6.19819 19.7115 6.02772zM3.81415 4.6047L4.76278 4.28849 5.23712 5.71151 4.28849 6.02772C3.77708 6.19819 3.45362 6.30721 3.21847 6.4166 3.0008 6.51786 2.93077 6.58817 2.89154 6.6426 2.85231 6.69704 2.80775 6.78571 2.78053 7.02423 2.75111 7.28191 2.74999 7.62324 2.75001 8.16232L2.75001 8.23485C2.75002 8.68003 2.75089 8.95925 2.77221 9.17263 2.79187 9.36935 2.82428 9.44786 2.85363 9.49774 2.88298 9.54762 2.93588 9.61408 3.09829 9.7268 3.27447 9.84906 3.51814 9.98542 3.90729 10.2016L6.86419 11.8444 6.13571 13.1556 3.14962 11.4966C2.79836 11.3015 2.48813 11.1292 2.24307 10.9591 1.97748 10.7748 1.73867 10.5607 1.56083 10.2584 1.38299 9.95621 1.3118 9.64348 1.27965 9.3218 1.24999 9.02498 1.25 8.67009 1.25001 8.26828 1.25001 8.25718 1.25001 8.24605 1.25001 8.23489L1.25001 8.16236C1.25 8.14921 1.25 8.13611 1.25 8.12305 1.24996 7.63488 1.24992 7.20701 1.2902 6.85412 1.33375 6.47262 1.43076 6.10397 1.67466 5.76556 1.91857 5.42714 2.23762 5.21853 2.58577 5.05657 2.90781 4.90675 3.31373 4.77147 3.77686 4.61712 3.78925 4.613 3.80168 4.60885 3.81415 4.6047zM12 15.25C12.4142 15.25 12.75 15.5858 12.75 16V19C12.75 19.4142 12.4142 19.75 12 19.75 11.5858 19.75 11.25 19.4142 11.25 19V16C11.25 15.5858 11.5858 15.25 12 15.25z" clip-rule="evenodd"></path><path fill="#111" fill-rule="evenodd" d="M8.10379 20.1568C8.26739 19.3388 8.98562 18.75 9.81981 18.75H14.1802C15.0144 18.75 15.7326 19.3388 15.8962 20.1568L16.2354 21.8529C16.2795 22.0732 16.2225 22.3017 16.08 22.4755C15.9376 22.6493 15.7247 22.75 15.5 22.75H8.5C8.27531 22.75 8.06245 22.6493 7.92 22.4755C7.77754 22.3017 7.7205 22.0732 7.76457 21.8529L8.10379 20.1568ZM9.81981 20.25C9.70064 20.25 9.59803 20.3341 9.57466 20.451L9.41486 21.25H14.5852L14.4253 20.451C14.402 20.3341 14.2994 20.25 14.1802 20.25H9.81981Z" clip-rule="evenodd"></path><path fill="#111" fill-rule="evenodd" d="M5.25 22C5.25 21.5858 5.58579 21.25 6 21.25H18C18.4142 21.25 18.75 21.5858 18.75 22 18.75 22.4142 18.4142 22.75 18 22.75H6C5.58579 22.75 5.25 22.4142 5.25 22zM7.4984 1.60719C8.66129 1.41099 10.1724 1.25 12.0002 1.25 12.7361 1.25 13.4208 1.27611 14.0522 1.32011 14.4654 1.34891 14.777 1.70723 14.7482 2.12044 14.7194 2.53365 14.3611 2.84528 13.9479 2.81648 13.3506 2.77485 12.7007 2.75 12.0002 2.75 10.2608 2.75 8.8332 2.90319 7.74796 3.08629 6.54105 3.28992 6.28751 3.3661 6.02161 3.69358 5.75957 4.01632 5.73468 4.32156 5.78848 5.67672 5.87816 7.93537 6.1761 10.3727 7.09884 12.2264 7.55432 13.1414 8.14983 13.8887 8.92569 14.409 9.69656 14.9261 10.6909 15.25 12 15.25 13.3091 15.25 14.3038 14.9261 15.0746 14.409 15.8505 13.8887 16.446 13.1414 16.9015 12.2264 17.8242 10.3727 18.1222 7.93537 18.2118 5.67672 18.2656 4.32156 18.2407 4.01632 17.9787 3.69358 17.7717 3.43865 17.5559 3.32558 16.8594 3.19268 16.4525 3.11503 16.1857 2.72226 16.2633 2.31539 16.3409 1.90851 16.7337 1.64162 17.1406 1.71926 17.9271 1.86936 18.5904 2.06732 19.1432 2.74808 19.8003 3.55739 19.7628 4.46863 19.7173 5.57222 19.7151 5.62642 19.7128 5.68108 19.7106 5.73622 19.6196 8.03065 19.3169 10.74 18.2443 12.8949 17.7021 13.9841 16.9512 14.9565 15.9101 15.6548 14.8641 16.3564 13.5711 16.75 12.0002 16.75 10.4293 16.75 9.13626 16.3564 8.09017 15.6548 7.04908 14.9565 6.29821 13.9841 5.75601 12.8949 4.68338 10.74 4.38076 8.03065 4.28966 5.73622 4.28748 5.68108 4.28522 5.62642 4.28299 5.57222 4.23754 4.46863 4.20001 3.55739 4.85713 2.74808 5.51366 1.93949 6.35333 1.79893 7.36355 1.62983 7.40817 1.62236 7.45312 1.61484 7.4984 1.60719z" clip-rule="evenodd"></path></svg>