<svg xmlns="http://www.w3.org/2000/svg" width="64" height="64" viewBox="0 0 16.933 16.933" id="presentation"><path d="M1.975 1.059a.48.48 0 0 0-.477.474V3.23c0 .26.219.476.477.476h.053v.576c0 .236.284.354.45.188l.77-.764h1.479a.48.48 0 0 0 .475-.476V1.533a.479.479 0 0 0-.475-.474zm7.26 0c-.345.024-.32.538.025.529h2.912c.36.008.36-.537 0-.53H9.235zm-7.207.529h2.644v1.588H3.14a.265.265 0 0 0-.187.076l-.395.393v-.206a.265.265 0 0 0-.266-.263h-.263Zm.528.529a.265.265 0 1 0 0 .529.265.265 0 0 0 0-.53zm.794 0a.265.265 0 1 0 0 .529.265.265 0 0 0 0-.53zm.794 0a.265.265 0 1 0 0 .529.265.265 0 0 0 0-.53zm1.858 0c-.266 0-.445.238-.445.477v.635c0 .239.179.476.445.476h.348v3.969h-.117c-.33-.204-.7-.437-1.012-.635-.109-.065-.242-.16-.46-.16H3.707c-.265 0-.734-.02-1.073.318l-.793.662a.268.268 0 0 0-.013.012c-.088.083-.25.19-.356.482l-.365.995a.797.797 0 0 0 .473 1.017.8.8 0 0 0 1.02-.473l.311-.853v1.016c0 .435.36.792.796.792h1.056a.798.798 0 0 0 .795-.792v-.95c.107.057.244.155.53.155h.263v1.376c0 .243.186.477.451.477h8.094c.265 0 .451-.234.451-.477v-6.93h.084c.266 0 .445-.238.445-.477v-.635c0-.24-.179-.477-.445-.477zm.084.53h9.26v.529h-9.26Zm.793 1.058h7.938v6.879H6.879V9.26h.266a.797.797 0 0 0 .793-.793.796.796 0 0 0-.793-.793H6.88Zm.53.264a.265.265 0 1 0 0 .529.265.265 0 0 0 0-.53zm3.175 0a.265.265 0 0 0-.265.263v1.721c.007.345.521.345.529 0v-.662h1.059a.265.265 0 0 0 .265-.264v-.795a.265.265 0 0 0-.265-.263Zm3.704 0a.265.265 0 1 0 0 .529.265.265 0 0 0 0-.53zm-10.053.529c-.582 0-1.059.477-1.059 1.059 0 .581.477 1.058 1.059 1.058.581 0 1.057-.477 1.057-1.058 0-.582-.476-1.06-1.057-1.06zm6.613 0h.795v.263h-.795zm-6.613.53c.295 0 .527.233.527.529 0 .295-.232.529-.527.529a.525.525 0 0 1-.53-.53c0-.295.234-.529.53-.529zm4.494 1.054a.265.265 0 0 0-.184.455l.078.077-.078.077c-.271.249.124.646.373.375l.078-.078.079.078a.265.265 0 1 0 .373-.375l-.078-.077.078-.077a.265.265 0 1 0-.373-.375l-.079.078-.078-.078a.265.265 0 0 0-.189-.08Zm3.438.264a.265.265 0 0 0-.195.09l-.507.507a.257.257 0 0 0-.058.088c-.109.268.228.491.433.287l.067-.067v1.745a.256.256 0 0 1-.264.264h-1.059c-.36-.008-.36.537 0 .529h1.06a.798.798 0 0 0 .793-.793V7.253l.063.065c.25.26.634-.126.373-.375l-.488-.489a.265.265 0 0 0-.218-.108Zm1.324.795a.265.265 0 0 0-.184.455l.077.077-.077.077c-.25.25.125.625.375.375l.077-.077.077.077a.265.265 0 0 0 .375-.375l-.077-.077.077-.077a.265.265 0 0 0-.193-.455.265.265 0 0 0-.182.08l-.077.077-.077-.077a.265.265 0 0 0-.192-.08zm-9.785.267h.263V8.73c-.008.36.537.36.53 0V7.408h.263s.11.038.187.086l.133.084.934.584c.042.026.091.04.14.039h.989c.15 0 .264.114.264.266a.257.257 0 0 1-.264.263H6.086c-.216 0-.158-.021-.338-.111l-.003-.002-.32-.186a.265.265 0 0 0-.397.229v1.395a.259.259 0 0 1-.266.263H3.706a.258.258 0 0 1-.266-.263V8.469a.265.265 0 0 0-.434-.203l-.488.406a.265.265 0 0 0-.078.113l-.34.926a.26.26 0 0 1-.34.158.258.258 0 0 1-.156-.34l.363-.994c.075-.205.074-.137.225-.281l.798-.666a.267.267 0 0 0 .018-.016c.143-.143.433-.164.698-.164Zm5.82.53c-.362 0-.663.3-.663.661a.666.666 0 0 0 .663.66.665.665 0 0 0 .662-.66c0-.362-.3-.662-.662-.662zm0 .529a.13.13 0 0 1 .133.132c0 .077-.057.131-.133.131a.128.128 0 0 1-.133-.13.13.13 0 0 1 .133-.133zM7.409 9.789a.265.265 0 1 0 0 .53.265.265 0 0 0 0-.53zm6.879 0a.265.265 0 1 0 0 .53.265.265 0 0 0 0-.53zm-7.673 1.854a1.06 1.06 0 0 0-1.058 1.056c0 .581.477 1.059 1.058 1.059.582 0 1.06-.478 1.06-1.06 0-.58-.478-1.055-1.06-1.055zm3.44 0a1.06 1.06 0 0 0-1.058 1.056c0 .581.477 1.059 1.058 1.059.581 0 1.059-.478 1.059-1.06 0-.58-.478-1.055-1.059-1.055zm3.44 0c-.582 0-1.06.474-1.06 1.056 0 .581.478 1.059 1.06 1.059.581 0 1.058-.478 1.058-1.06a1.06 1.06 0 0 0-1.058-1.055zm-6.88.527c.296 0 .53.233.53.529 0 .295-.234.53-.53.53a.526.526 0 0 1-.529-.53c0-.296.234-.53.53-.53zm3.44 0c.295 0 .53.233.53.529 0 .295-.235.53-.53.53a.526.526 0 0 1-.53-.53c0-.296.235-.53.53-.53zm3.44 0c.295 0 .529.233.529.529 0 .295-.234.53-.53.53a.526.526 0 0 1-.529-.53c0-.296.234-.53.53-.53zm-7.409 1.853a.798.798 0 0 0-.794.793v.795c0 .146.119.264.265.264h2.117a.265.265 0 0 0 .264-.264v-.795a.796.796 0 0 0-.793-.793zm3.44 0a.798.798 0 0 0-.795.793v.795c0 .147.12.265.266.264h2.117a.265.265 0 0 0 .263-.264v-.795a.797.797 0 0 0-.793-.793zm3.44 0a.797.797 0 0 0-.794.793v.795c0 .146.118.263.264.264h2.117a.265.265 0 0 0 .264-.264v-.795a.796.796 0 0 0-.793-.793zm-6.88.53h1.06c.15 0 .263.112.263.263v.53H5.82v-.53c0-.151.114-.264.265-.264zm3.44 0h1.058c.151 0 .264.112.264.263v.53H9.26v-.53c0-.151.115-.264.266-.264zm3.44 0h1.058c.151 0 .263.112.263.263v.53H12.7v-.53c0-.151.115-.264.266-.264z" color="#000" font-family="sans-serif" font-weight="400" overflow="visible" style="line-height:normal;font-variant-ligatures:normal;font-variant-position:normal;font-variant-caps:normal;font-variant-numeric:normal;font-variant-alternates:normal;font-feature-settings:normal;text-indent:0;text-align:start;text-decoration-line:none;text-decoration-style:solid;text-decoration-color:#000;text-transform:none;text-orientation:mixed;shape-padding:0;isolation:auto;mix-blend-mode:normal"></path></svg>