<svg xmlns="http://www.w3.org/2000/svg" enable-background="new 0 0 98 98" viewBox="0 0 98 98" id="project-management"><path d="M80.3257,31.7139l5.1318-7.8647L74.6079,12.9897l-7.873,5.1401c-2.4165-1.3618-5.001-2.4336-7.6982-3.1924L57.103,5.7446
		H41.7515l-1.9243,9.1909c-2.6689,0.7446-5.2559,1.8169-7.7056,3.1948l-7.8652-5.1411L13.4067,23.8491l5.1309,7.8633
		c-1.3643,2.4209-2.436,5.0059-3.1929,7.6987l-9.1919,1.9336v15.3506l9.1919,1.9331c0.7568,2.6934,1.8286,5.2778,3.1929,7.6992
		l-5.1309,7.8633l10.8496,10.8599l7.8652-5.1411c2.4497,1.3779,5.0366,2.4502,7.7056,3.1948l1.9243,9.1904H57.103l1.9336-9.1924
		c2.6987-0.7598,5.2827-1.8315,7.6982-3.1924l7.873,5.1401L85.458,74.1909l-5.1328-7.8574c1.3745-2.4556,2.4448-5.0425,3.187-7.7051
		l9.1909-1.9331V41.3447l-9.1909-1.9331C82.769,36.7446,81.6992,34.1606,80.3257,31.7139z M90.7031,55.0723l-8.8096,1.8525
		l-0.1558,0.6001c-0.75,2.8945-1.9102,5.7007-3.4482,8.3403l-0.3105,0.5337l4.9165,7.5264l-8.5542,8.5625l-7.5454-4.9268
		l-0.5342,0.314c-2.5874,1.52-5.3906,2.6831-8.332,3.4561l-0.5972,0.1572L55.48,90.2949H43.3765l-1.8447-8.8091l-0.6006-0.1553
		c-2.9019-0.7524-5.707-1.915-8.3379-3.4561l-0.5342-0.313l-7.5361,4.9258l-8.5547-8.562l4.9185-7.5371l-0.314-0.5342
		c-1.5244-2.5947-2.687-5.3975-3.4561-8.3315L16.96,56.9243l-8.8071-1.8521V42.9678l8.8071-1.8525l0.1567-0.5981
		c0.769-2.9336,1.9316-5.7368,3.4561-8.3311l0.314-0.5342l-4.9185-7.5371l8.5547-8.562l7.5361,4.9258l0.5342-0.313
		c2.6309-1.541,5.4365-2.7036,8.3379-3.4561l0.6006-0.1553l1.8447-8.8096H55.48l1.8525,8.8071l0.5977,0.1572
		c2.9395,0.772,5.7427,1.9351,8.3315,3.4561l0.5342,0.314l7.5454-4.9268l8.5547,8.5625l-4.9175,7.5361l0.312,0.5332
		c1.5361,2.6289,2.6958,5.4316,3.4478,8.3306l0.1553,0.6001l8.8096,1.853V55.0723z"></path><path d="M49.4277,21.0356c-5.2075,0-10.2896,1.4404-14.6968,4.166l1.0518,1.7012c4.0913-2.5298,8.8096-3.8672,13.645-3.8672
		c14.3276,0,25.9844,11.6567,25.9844,25.9844S63.7554,75.0039,49.4277,75.0039S23.4438,63.3476,23.4438,49.02
		c0-7.5117,3.2505-14.6533,8.9175-19.5942l-1.3145-1.5078c-6.103,5.3213-9.603,13.0122-9.603,21.1021
		c0,15.4302,12.5537,27.9839,27.9839,27.9839c15.4307,0,27.9844-12.5537,27.9844-27.9839
		C77.4121,33.5893,64.8584,21.0356,49.4277,21.0356z"></path><rect width="20.192" height="2" x="3.51" y="3.478"></rect><rect width="2" height="2" x="19.51" y="8.518"></rect><rect width="2" height="2" x="11.51" y="8.518"></rect><rect width="2" height="2" x="7.51" y="8.518"></rect><rect width="2" height="2" x="3.51" y="8.518"></rect><rect width="2" height="2" x="15.51" y="8.518"></rect><rect width="20.192" height="2" x="72.453" y="87.481"></rect><rect width="2" height="2" x="76.453" y="92.522"></rect><rect width="2" height="2" x="72.453" y="92.522"></rect><rect width="2" height="2" x="80.453" y="92.522"></rect><rect width="2" height="2" x="84.453" y="92.522"></rect><rect width="2" height="2" x="88.453" y="92.522"></rect><rect width="2" height="2" x="4.142" y="67.417"></rect><rect width="1.465" height="2" x="12.142" y="67.417"></rect><rect width="2" height="2" x="8.142" y="67.417"></rect><rect width="2" height="2" x="71.159" y="5.998"></rect><rect width="2" height="2" x="75.159" y="5.998"></rect><rect width="1.465" height="2" x="79.159" y="5.998"></rect><rect width="2" height="2" x="89.025" y="66.504"></rect><rect width="1.465" height="2" x="93.025" y="66.504"></rect><rect width="2" height="2" x="85.025" y="66.504"></rect><rect width="9.465" height="2" x="17.708" y="90.236"></rect><rect width="6.356" height="2" x="88.134" y="31.618"></rect><path d="M30.1812,60.6958c2.6886,0,39.8873,0,38.4932,0v-2h-2.458v-19.689h-6.3965v19.689h-2.5635v-13.272h-6.3965v13.272h-2.5635
		V37.3442h-6.3965v21.3516h-2.5635V43.0601h-6.396v15.6357h-2.7593V60.6958z M61.8198,41.0068h2.3965v17.689h-2.3965V41.0068z
		 M52.8599,47.4238h2.3965v11.272h-2.3965V47.4238z M43.8999,39.3442h2.3965v19.3516h-2.3965V39.3442z M34.9404,45.0601h2.396
		v13.6357h-2.396V45.0601z"></path></svg>